<svg xmlns="http://www.w3.org/2000/svg" width="2720" height="2720" viewBox="0 0 2720 2720">
  <defs>
    <clipPath id="sq">
      <rect x="0" y="0" width="2720" height="2720" rx="260"></rect>
    </clipPath>
  </defs>

  
  <rect x="0" y="0" width="2720" height="2720" rx="260" fill="#FFFFFF"></rect>

  
  <rect x="15" y="15" width="2690" height="2690" rx="250" fill="none" stroke="#1A1A1A" stroke-width="30" opacity="0.18"></rect>

  
  <polygon points="0,0 1450,0 0,1450" fill="#D32F2F" clip-path="url(#sq)"></polygon>

  
  
  <line x1="2380" y1="340" x2="2580" y2="340" stroke="#1A1A1A" stroke-width="12" opacity="0.18"></line>
  
  <line x1="2380" y1="340" x2="2380" y2="140" stroke="#1A1A1A" stroke-width="12" opacity="0.18"></line>
  
  <circle cx="2380" cy="140" r="20" fill="#1A1A1A" opacity="0.18"></circle>

  
  
  <line x1="340" y1="2380" x2="140" y2="2380" stroke="#1A1A1A" stroke-width="12" opacity="0.18"></line>
  
  <line x1="340" y1="2380" x2="340" y2="2580" stroke="#1A1A1A" stroke-width="12" opacity="0.18"></line>
  
  <circle cx="340" cy="2580" r="20" fill="#1A1A1A" opacity="0.18"></circle>

  
  
  <line x1="2380" y1="2380" x2="2580" y2="2380" stroke="#1A1A1A" stroke-width="12" opacity="0.18"></line>
  
  <line x1="2380" y1="2380" x2="2380" y2="2580" stroke="#1A1A1A" stroke-width="12" opacity="0.18"></line>
  
  <circle cx="2380" cy="2580" r="20" fill="#1A1A1A" opacity="0.18"></circle>

  
  <path d="M1360 680 L1680 810 L1680 1280 Q1680 1560 1360 1660 Q1040 1560 1040 1280 L1040 810 Z" fill="#D32F2F"></path>

  
  <text x="1360" y="1320" text-anchor="middle" font-family="&#39;Courier New&#39;, Courier, monospace" font-size="360" font-weight="900" fill="#FFFFFF">&lt;/&gt;</text>

  
  <text x="1360" y="1900" text-anchor="middle" font-family="Arial Black, Arial, sans-serif" font-size="280" font-weight="900" fill="#D32F2F" letter-spacing="30">AEM</text>

  
  <text x="1360" y="2080" text-anchor="middle" font-family="Arial Black, Arial, sans-serif" font-size="160" font-weight="700" fill="#1A1A1A" letter-spacing="80">INSIDER</text>

</svg>